<svg version="1.0" xmlns="http://www.w3.org/2000/svg"
 width="100pt" height="100pt" viewBox="0 0 1000 1000"
 preserveAspectRatio="xMidYMid meet">
<g transform="translate(0.000000, 750.000000) scale(0.0500000,-0.0500000)"
fill="#000000" stroke="none">
<path d="M1735 7479 c-51 -25 -86 -59 -113 -110 -22 -40 -22 -50 -22 -422 1
-376 1 -383 25 -455 29 -87 71 -163 122 -218 21 -22 371 -290 778 -594 407
-305 1033 -773 1391 -1040 375 -281 663 -503 680 -525 24 -31 29 -49 32 -104
2 -54 -1 -73 -20 -106 -24 -42 -152 -139 -2035 -1548 -921 -689 -882 -654
-949 -851 -24 -68 -24 -76 -24 -452 0 -371 1 -385 21 -421 29 -53 56 -79 107
-108 53 -30 127 -33 174 -9 28 14 453 331 3258 2429 1293 968 1169 871 1207
940 50 91 43 180 -20 269 -12 16 -368 289 -791 606 -424 317 -1408 1053 -2186
1635 -778 583 -1435 1070 -1459 1082 -55 29 -122 29 -176 2z"/>
<path d="M1746 4975 c-46 -16 -101 -67 -127 -117 -18 -36 -19 -69 -19 -857 0
-814 0 -821 21 -858 29 -52 57 -82 101 -104 53 -27 115 -34 163 -17 38 13
1002 724 1073 792 48 44 74 101 80 171 6 75 -21 145 -76 198 -63 60 -1037 783
-1072 795 -43 16 -96 14 -144 -3z"/>
</g>
</svg>
